<svg width="22" height="21" viewBox="0 0 22 21" fill="none" xmlns="http://www.w3.org/2000/svg">
<g clip-path="url(#clip0_168_645)">
<path d="M17.5196 5.17661H6.24508C6.00901 5.17661 5.78261 5.26351 5.61568 5.41819C5.44876 5.57288 5.35498 5.78267 5.35498 6.00143V19.1986C5.35498 19.4174 5.44876 19.6272 5.61568 19.7819C5.78261 19.9366 6.00901 20.0235 6.24508 20.0235H17.5196C17.7557 20.0235 17.9821 19.9366 18.149 19.7819C18.3159 19.6272 18.4097 19.4174 18.4097 19.1986V6.00143C18.4097 5.78267 18.3159 5.57288 18.149 5.41819C17.9821 5.26351 17.7557 5.17661 17.5196 5.17661V5.17661ZM17.2229 18.9237H6.54178V6.27637H17.2229V18.9237Z" fill="white"/>
<path d="M15.4427 3.25204C15.4427 3.03328 15.3489 2.82349 15.182 2.6688C15.0151 2.51412 14.7887 2.42722 14.5526 2.42722H3.27804C3.04197 2.42722 2.81557 2.51412 2.64864 2.6688C2.48172 2.82349 2.38794 3.03328 2.38794 3.25204V16.4493C2.38794 16.668 2.48172 16.8778 2.64864 17.0325C2.81557 17.1872 3.04197 17.2741 3.27804 17.2741H3.57473V3.52698H15.4427V3.25204Z" fill="white"/>
</g>
<defs>
<clipPath id="clip0_168_645">
<rect width="21.3623" height="19.608" fill="white" transform="translate(0.0144043 0.745209)"/>
</clipPath>
</defs>
</svg>
