<svg width="44" height="42" viewBox="0 0 44 42" fill="none" xmlns="http://www.w3.org/2000/svg">
<path d="M21.0001 0.166656C9.51258 0.166656 0.166748 9.51249 0.166748 21C0.166748 32.4875 9.51258 41.8333 21.0001 41.8333C32.4876 41.8333 41.8334 32.4875 41.8334 21C41.8334 18.6542 41.425 16.4046 40.7063 14.2983L37.3331 17.6715C37.5518 18.7465 37.6667 19.8604 37.6667 21C37.6667 30.1896 30.1897 37.6667 21.0001 37.6667C11.8105 37.6667 4.33341 30.1896 4.33341 21C4.33341 11.8104 11.8105 4.33332 21.0001 4.33332C24.4022 4.33332 27.5666 5.36226 30.2083 7.12059L33.1908 4.13801C29.7575 1.65051 25.5522 0.166656 21.0001 0.166656ZM40.3604 2.86034L18.9167 24.304L12.0564 17.4437L9.11043 20.3896L18.9167 30.196L43.3064 5.8063L40.3604 2.86034Z" fill="#5AB72E"/>
</svg>
